<svg width="140" height="41" viewBox="0 0 140 41" fill="none" xmlns="http://www.w3.org/2000/svg">
<mask id="mask0_2351_4008" style="mask-type:luminance" maskUnits="userSpaceOnUse" x="0" y="0" width="140" height="41">
<path d="M140 0.410156H0V40.8546H140V0.410156Z" fill="white"/>
</mask>
<g mask="url(#mask0_2351_4008)">
<path d="M103.619 8.01562L96.3272 26.8228H92.8082L86.9431 9.3106L81.008 26.8228H77.3839L70.127 8.01562H72.9107L79.2485 25.2448L85.2186 8.01562H88.7026L94.5677 25.099L100.94 8.01562H103.61H103.619Z" fill="#010101"/>
<path d="M125.241 18.104H107.952C108.241 22.9495 111.358 25.4965 115.866 25.4965C119.271 25.4965 121.617 23.9872 122.606 21.9118L124.917 22.0576C123.779 25.2135 120.672 27.2632 115.866 27.2632C109.712 27.2632 105.536 23.9957 105.536 17.4265C105.536 10.8573 109.782 7.58984 115.612 7.58984C121.442 7.58984 125.25 10.8916 125.25 17.7438V18.104H125.241ZM107.987 16.4574H122.825C122.711 12.0751 119.858 9.34793 115.612 9.34793C111.366 9.34793 108.355 11.7921 107.996 16.4574H107.987Z" fill="#010101"/>
<path d="M131.938 0.410156V26.8243H129.522V0.410156H131.938Z" fill="#010101"/>
<path d="M140 0.410156V26.8243H137.584V0.410156H140Z" fill="#010101"/>
<path d="M73.9874 34.8154L76.5523 40.587C76.5523 40.587 76.5523 40.6556 76.5523 40.6899C76.5523 40.7157 76.526 40.7328 76.4822 40.7328H75.9482C75.8695 40.7328 75.8082 40.6985 75.7819 40.6213L75.2742 39.4464H71.4575L70.9411 40.6213C70.9148 40.6985 70.8623 40.7328 70.7747 40.7328H70.232C70.232 40.7328 70.1707 40.7157 70.1532 40.6814C70.1357 40.6556 70.1357 40.6213 70.1532 40.5785L72.7531 34.8154C72.7881 34.7382 72.8494 34.6953 72.9194 34.6953H73.8036C73.8911 34.7039 73.9524 34.7468 73.9874 34.8154ZM73.4709 35.3214H73.2521L71.7376 38.7946H74.9853L73.4709 35.3214Z" fill="#010101"/>
<path d="M82.8287 34.8333V40.5878C82.8287 40.6821 82.7762 40.7336 82.6799 40.7336H82.2422C82.1372 40.7336 82.0846 40.6821 82.0846 40.5878V35.3564H78.3818V40.5878C78.3818 40.6821 78.3292 40.7336 78.233 40.7336H77.7953C77.6902 40.7336 77.6377 40.6821 77.6377 40.5878V34.8333C77.6377 34.739 77.6902 34.6875 77.7953 34.6875H82.6799C82.7762 34.6875 82.8287 34.739 82.8287 34.8333Z" fill="#010101"/>
<path d="M87.7746 34.8154L90.3395 40.587C90.3395 40.587 90.3395 40.6556 90.3395 40.6899C90.3395 40.7157 90.3132 40.7328 90.2695 40.7328H89.7355C89.6567 40.7328 89.5954 40.6985 89.5692 40.6213L89.0614 39.4464H85.2448L84.7283 40.6213C84.702 40.6985 84.6495 40.7328 84.562 40.7328H84.0192C84.0192 40.7328 83.9579 40.7157 83.9404 40.6814C83.9229 40.6556 83.9229 40.6213 83.9404 40.5785L86.5403 34.8154C86.5753 34.7382 86.6366 34.6953 86.7067 34.6953H87.5908C87.6783 34.7039 87.7396 34.7468 87.7746 34.8154ZM87.2581 35.3214H87.0393L85.5249 38.7946H88.7726L87.2581 35.3214Z" fill="#010101"/>
<path d="M95.3207 34.8871C95.6096 34.9986 95.8459 35.1444 96.0473 35.3331C96.2486 35.5218 96.4062 35.7447 96.52 36.002C96.6338 36.2593 96.6863 36.5337 96.6863 36.8339C96.6863 37.134 96.6338 37.417 96.52 37.6658C96.4062 37.923 96.2486 38.146 96.0473 38.3347C95.8547 38.5234 95.6096 38.6691 95.3207 38.7806C95.0318 38.8921 94.7254 38.9436 94.4016 38.9436H92.1693V40.6073C92.1693 40.7017 92.1168 40.7531 92.0205 40.7531H91.5653C91.469 40.7531 91.4165 40.7017 91.4165 40.6073V34.8528C91.4165 34.7585 91.469 34.707 91.5653 34.707H94.3928V34.7328C94.7167 34.7328 95.0231 34.7928 95.312 34.8957L95.3207 34.8871ZM95.5483 37.8544C95.8109 37.5714 95.9422 37.2284 95.9422 36.8167C95.9422 36.4051 95.8109 36.0706 95.5483 35.7876C95.2857 35.5046 94.9005 35.3674 94.4016 35.3674H92.1693V38.2746H94.4016C94.9093 38.2746 95.2857 38.1374 95.5483 37.863V37.8544Z" fill="#010101"/>
<path d="M102.866 34.8497V35.2013C102.866 35.3042 102.814 35.3557 102.709 35.3557H100.494V40.5785C100.494 40.6814 100.441 40.7328 100.336 40.7328H99.9074C99.8024 40.7328 99.7499 40.6814 99.7499 40.5785V35.3557H97.5351C97.4301 35.3557 97.3776 35.3042 97.3776 35.2013V34.8497C97.3776 34.7468 97.4301 34.6953 97.5351 34.6953H102.717C102.822 34.6953 102.875 34.7468 102.875 34.8497H102.866Z" fill="#010101"/>
<path d="M104.214 37.2422H105.746C105.851 37.2422 105.904 37.2936 105.904 37.388V37.7653C105.904 37.8597 105.851 37.9111 105.746 37.9111H104.214C104.118 37.9111 104.066 37.8597 104.066 37.7653V37.388C104.066 37.2936 104.118 37.2422 104.214 37.2422Z" fill="#010101"/>
<path d="M114.071 36.5251C113.914 36.1477 113.686 35.8218 113.406 35.5388C113.135 35.273 112.802 35.0586 112.399 34.8956C112.014 34.7412 111.594 34.6641 111.147 34.6641C110.701 34.6641 110.29 34.7412 109.904 34.8956C109.519 35.05 109.187 35.2644 108.898 35.5474C108.609 35.8304 108.39 36.1563 108.232 36.5336C108.075 36.9024 107.996 37.314 107.996 37.76C107.996 38.1974 108.075 38.609 108.232 38.9778C108.39 39.3551 108.609 39.681 108.898 39.964C109.187 40.247 109.519 40.4614 109.904 40.6158C110.29 40.7702 110.701 40.8474 111.147 40.8474C111.594 40.8474 112.023 40.7702 112.399 40.6158C112.802 40.4529 113.135 40.2385 113.406 39.9726C113.704 39.681 113.922 39.3551 114.071 38.9949C114.229 38.6176 114.308 38.206 114.308 37.7514C114.308 37.2969 114.229 36.8852 114.071 36.5079V36.5251ZM113.598 37.7343C113.598 38.0773 113.546 38.4032 113.432 38.6948C113.327 38.9778 113.161 39.2351 112.933 39.4666C112.714 39.6896 112.46 39.8611 112.163 39.9812C111.865 40.1098 111.533 40.1699 111.182 40.1699C110.832 40.1699 110.5 40.1098 110.202 39.9812C109.896 39.8525 109.633 39.6896 109.432 39.4752C109.204 39.2436 109.038 38.9864 108.933 38.7034C108.819 38.4118 108.766 38.0859 108.766 37.7428C108.766 37.7428 108.766 37.7343 108.766 37.7257C108.766 37.7257 108.766 37.7171 108.766 37.7085C108.766 37.3655 108.819 37.0396 108.933 36.748C109.038 36.465 109.204 36.2077 109.432 35.9762C109.651 35.7532 109.904 35.5817 110.202 35.4616C110.5 35.333 110.832 35.273 111.182 35.273C111.533 35.273 111.865 35.333 112.163 35.4616C112.469 35.5903 112.732 35.7532 112.933 35.9676C113.161 36.1992 113.327 36.4564 113.432 36.7395C113.546 37.031 113.598 37.3569 113.598 37.7C113.598 37.7 113.598 37.7085 113.598 37.7171C113.598 37.7171 113.598 37.7257 113.598 37.7343Z" fill="#010101"/>
<path d="M120.54 34.8497V35.2013C120.54 35.3042 120.488 35.3557 120.383 35.3557H118.168V40.5785C118.168 40.6814 118.116 40.7328 118.01 40.7328H117.582C117.477 40.7328 117.424 40.6814 117.424 40.5785V35.3557H115.209C115.104 35.3557 115.052 35.3042 115.052 35.2013V34.8497C115.052 34.7468 115.104 34.6953 115.209 34.6953H120.392C120.497 34.6953 120.549 34.7468 120.549 34.8497H120.54Z" fill="#010101"/>
<path d="M126.134 34.8333V35.2106C126.134 35.305 126.081 35.3564 125.985 35.3564H122.195V37.2174H125.766C125.863 37.2174 125.915 37.2689 125.915 37.3632V37.7406C125.915 37.8349 125.863 37.8863 125.766 37.8863H122.195V40.0732H126.099C126.195 40.0732 126.248 40.1161 126.248 40.2019V40.5878C126.248 40.6821 126.195 40.7336 126.099 40.7336H121.599C121.503 40.7336 121.451 40.6821 121.451 40.5878V34.8333C121.451 34.739 121.503 34.6875 121.599 34.6875H125.985C126.081 34.6875 126.134 34.739 126.134 34.8333Z" fill="#010101"/>
<path d="M134.87 34.7422H135.334C135.422 34.7422 135.465 34.7936 135.465 34.888V36.526H137.706C138.03 36.526 138.337 36.5775 138.625 36.6889C138.914 36.8004 139.151 36.9462 139.352 37.1349C139.553 37.3236 139.711 37.5465 139.825 37.8038C139.938 38.0611 139.991 38.3355 139.991 38.6357C139.991 38.9359 139.938 39.2189 139.825 39.4676C139.711 39.7248 139.553 39.9478 139.352 40.1365C139.159 40.3252 138.914 40.471 138.625 40.5824C138.337 40.6939 138.03 40.7454 137.706 40.7454H134.87C134.774 40.7454 134.721 40.6939 134.721 40.5996V34.888C134.721 34.7936 134.774 34.7422 134.87 34.7422ZM138.354 39.965C138.547 39.8878 138.704 39.7849 138.844 39.6562C138.984 39.519 139.081 39.3647 139.151 39.1931C139.221 39.013 139.256 38.8244 139.256 38.6185C139.256 38.4127 139.221 38.2155 139.151 38.044C139.081 37.8639 138.984 37.7095 138.844 37.5808C138.713 37.4522 138.547 37.3493 138.354 37.2721C138.17 37.1949 137.951 37.1606 137.698 37.1606H135.465V40.085H137.698C137.951 40.085 138.17 40.0507 138.354 39.9736V39.965Z" fill="#010101"/>
<path d="M131.071 34.8154C131.045 34.7382 130.983 34.7039 130.887 34.7039L130.003 34.6953C129.924 34.6953 129.872 34.7382 129.837 34.8154L127.237 40.5785C127.237 40.5785 127.219 40.6471 127.237 40.6814C127.254 40.7157 127.281 40.7328 127.316 40.7328H127.858C127.946 40.7328 128.007 40.6985 128.025 40.6213L128.375 39.8323L128.821 38.7946L129.154 38.0228L130.336 35.3214H130.555L131.798 38.1772L132.358 39.4464L132.524 39.8323L132.866 40.6213C132.892 40.6985 132.953 40.7328 133.032 40.7328H133.566C133.566 40.7328 133.627 40.7157 133.636 40.6899C133.636 40.6642 133.636 40.6299 133.636 40.587L131.071 34.8154Z" fill="#010101"/>
<path d="M60.1301 7.20312H0C6.64416 18.4548 13.122 29.415 19.8099 40.7353C23.2764 34.8522 26.6817 29.0891 30.0694 23.3346C33.4747 29.0977 36.8799 34.8693 40.3464 40.7353C47.0518 29.3635 53.5122 18.4205 60.1213 7.20312H60.1301Z" fill="url(#paint0_linear_2351_4008)"/>
</g>
<defs>
<linearGradient id="paint0_linear_2351_4008" x1="11.7914" y1="28.8147" x2="54.7893" y2="2.93181" gradientUnits="userSpaceOnUse">
<stop stop-color="#C59A79"/>
<stop offset="0.19" stop-color="#D1AD89"/>
<stop offset="0.73" stop-color="#F2DFB5"/>
<stop offset="1" stop-color="#FFF3C6"/>
</linearGradient>
</defs>
</svg>
