<svg width="24" height="24" viewBox="0 0 24 24" fill="none" xmlns="http://www.w3.org/2000/svg">
<path d="M9.81818 19.3945C9.94391 19.8546 10.2263 20.262 10.6212 20.5528C11.016 20.8435 11.5009 21.0013 12 21.0013C12.499 21.0013 12.984 20.8435 13.3788 20.5528C13.7737 20.262 14.0561 19.8546 14.1818 19.3945" stroke="black" stroke-width="1.2" stroke-linecap="round" stroke-linejoin="round"/>
<path d="M12 3C13.655 3 15.2421 3.62633 16.4123 4.74119C17.5826 5.85606 18.24 7.36815 18.24 8.94481C18.24 15.5548 19.3164 16.8574 20 16.8574H4C4.69818 16.8574 5.76 15.5409 5.76 8.94481C5.76 7.36815 6.41743 5.85606 7.58765 4.74119C8.75788 3.62633 10.345 3 12 3Z" stroke="black" stroke-width="1.2" stroke-linecap="round" stroke-linejoin="round"/>
</svg>
