<svg width="24" height="24" viewBox="0 0 24 24" fill="none" xmlns="http://www.w3.org/2000/svg">
<path d="M17.625 9.75C19.489 9.75 21 8.23896 21 6.375C21 4.51104 19.489 3 17.625 3C15.761 3 14.25 4.51104 14.25 6.375C14.25 8.23896 15.761 9.75 17.625 9.75Z" stroke="black" stroke-width="1.5" stroke-linecap="round" stroke-linejoin="round"/>
<path d="M6.375 21C8.23896 21 9.75 19.489 9.75 17.625C9.75 15.761 8.23896 14.25 6.375 14.25C4.51104 14.25 3 15.761 3 17.625C3 19.489 4.51104 21 6.375 21Z" stroke="black" stroke-width="1.5" stroke-linecap="round" stroke-linejoin="round"/>
<path d="M14.25 14.25H21V19.875C21 20.1734 20.8815 20.4595 20.6705 20.6705C20.4595 20.8815 20.1734 21 19.875 21H15.375C15.0766 21 14.7905 20.8815 14.5795 20.6705C14.3685 20.4595 14.25 20.1734 14.25 19.875V14.25ZM3 3H9.75V8.625C9.75 8.92337 9.63147 9.20952 9.42049 9.42049C9.20952 9.63147 8.92337 9.75 8.625 9.75H4.125C3.82663 9.75 3.54048 9.63147 3.32951 9.42049C3.11853 9.20952 3 8.92337 3 8.625V3Z" stroke="black" stroke-width="1.5" stroke-linecap="round" stroke-linejoin="round"/>
</svg>
