<svg width="24" height="24" viewBox="0 0 24 24" fill="none" xmlns="http://www.w3.org/2000/svg">
<path d="M7.07143 7.51724C6.53459 7.51724 6.00981 7.35545 5.56345 7.05233C5.11709 6.74921 4.76919 6.31837 4.56376 5.8143C4.35832 5.31023 4.30457 4.75556 4.4093 4.22044C4.51403 3.68532 4.77254 3.19378 5.15214 2.80798C5.53174 2.42218 6.01538 2.15945 6.5419 2.05301C7.06842 1.94657 7.61417 2.0012 8.11014 2.20999C8.60611 2.41878 9.03003 2.77236 9.32827 3.22601C9.62652 3.67967 9.78571 4.21302 9.78571 4.75862C9.78571 5.49025 9.49975 6.19192 8.99072 6.70926C8.48169 7.2266 7.7913 7.51724 7.07143 7.51724ZM7.07143 3.37931C6.80301 3.37931 6.54062 3.46021 6.31744 3.61177C6.09426 3.76333 5.92031 3.97875 5.81759 4.23078C5.71487 4.48282 5.688 4.76015 5.74036 5.02771C5.79273 5.29527 5.92198 5.54104 6.11178 5.73394C6.30158 5.92684 6.5434 6.05821 6.80666 6.11143C7.06992 6.16465 7.3428 6.13734 7.59078 6.03294C7.83877 5.92854 8.05073 5.75175 8.19985 5.52493C8.34898 5.2981 8.42857 5.03142 8.42857 4.75862C8.42857 4.39281 8.28559 4.04197 8.03107 3.7833C7.77656 3.52463 7.43137 3.37931 7.07143 3.37931ZM17.9286 7.51724C17.3917 7.51724 16.867 7.35545 16.4206 7.05233C15.9742 6.74921 15.6263 6.31837 15.4209 5.8143C15.2155 5.31023 15.1617 4.75556 15.2664 4.22044C15.3712 3.68532 15.6297 3.19378 16.0093 2.80798C16.3889 2.42218 16.8725 2.15945 17.399 2.05301C17.9256 1.94657 18.4713 2.0012 18.9673 2.20999C19.4633 2.41878 19.8872 2.77236 20.1854 3.22601C20.4837 3.67967 20.6429 4.21302 20.6429 4.75862C20.6429 5.49025 20.3569 6.19192 19.8479 6.70926C19.3388 7.2266 18.6484 7.51724 17.9286 7.51724ZM17.9286 3.37931C17.6602 3.37931 17.3978 3.46021 17.1746 3.61177C16.9514 3.76333 16.7775 3.97875 16.6747 4.23078C16.572 4.48282 16.5451 4.76015 16.5975 5.02771C16.6499 5.29527 16.7791 5.54104 16.9689 5.73394C17.1587 5.92684 17.4005 6.05821 17.6638 6.11143C17.9271 6.16465 18.1999 6.13734 18.4479 6.03294C18.6959 5.92854 18.9079 5.75175 19.057 5.52493C19.2061 5.2981 19.2857 5.03142 19.2857 4.75862C19.2857 4.39281 19.1427 4.04197 18.8882 3.7833C18.6337 3.52463 18.2885 3.37931 17.9286 3.37931ZM19.2857 22H16.5714C16.2115 22 15.8663 21.8547 15.6118 21.596C15.3573 21.3373 15.2143 20.9865 15.2143 20.6207V15.7931H16.5714V20.6207H19.2857V14.4138H20.6429V10.2759C20.6429 10.093 20.5714 9.91754 20.4441 9.7882C20.3169 9.65887 20.1443 9.58621 19.9643 9.58621H15.6079L12.5 15.1034L9.39214 9.58621H5.03571C4.85575 9.58621 4.68315 9.65887 4.55589 9.7882C4.42864 9.91754 4.35714 10.093 4.35714 10.2759V14.4138H5.71429V20.6207H8.42857V15.7931H9.78571V20.6207C9.78571 20.9865 9.64273 21.3373 9.38822 21.596C9.1337 21.8547 8.78851 22 8.42857 22H5.71429C5.35435 22 5.00915 21.8547 4.75464 21.596C4.50013 21.3373 4.35714 20.9865 4.35714 20.6207V15.7931C3.99721 15.7931 3.65201 15.6478 3.3975 15.3891C3.14298 15.1304 3 14.7796 3 14.4138V10.2759C3 9.72714 3.21448 9.20089 3.59625 8.81288C3.97802 8.42488 4.49581 8.2069 5.03571 8.2069H10.1793L12.5 12.3448L14.8207 8.2069H19.9643C20.5042 8.2069 21.022 8.42488 21.4038 8.81288C21.7855 9.20089 22 9.72714 22 10.2759V14.4138C22 14.7796 21.857 15.1304 21.6025 15.3891C21.348 15.6478 21.0028 15.7931 20.6429 15.7931V20.6207C20.6429 20.9865 20.4999 21.3373 20.2454 21.596C19.9908 21.8547 19.6457 22 19.2857 22Z" fill="black"/>
</svg>
