<svg width="24" height="24" viewBox="0 0 24 24" fill="none" xmlns="http://www.w3.org/2000/svg">
<path d="M3.99988 2.36685V21.7546C3.99988 22.0476 4.32639 22.2224 4.57018 22.0599L6.46309 20.7982C6.58629 20.7161 6.74679 20.7161 6.87 20.7982L9.12975 22.3044C9.25296 22.3865 9.41346 22.3865 9.53667 22.3044L11.7964 20.7982C11.9196 20.7161 12.0801 20.7161 12.2033 20.7982L14.4631 22.3044C14.5863 22.3865 14.7468 22.3865 14.87 22.3044L17.1298 20.7982C17.253 20.7161 17.4135 20.7161 17.5367 20.7982L19.4296 22.0599C19.6734 22.2224 19.9999 22.0476 19.9999 21.7546V2.36685C19.9999 2.16424 19.8356 2 19.633 2H4.36672C4.16412 2 3.99988 2.16424 3.99988 2.36685Z" stroke="black" stroke-width="1.5"/>
<path d="M15.711 5.55469H8.28948C7.88427 5.55469 7.55579 5.88317 7.55579 6.28838V6.59839C7.55579 7.00359 7.88427 7.33208 8.28948 7.33208H15.711C16.1162 7.33208 16.4447 7.00359 16.4447 6.59839V6.28838C16.4447 5.88317 16.1162 5.55469 15.711 5.55469Z" fill="black"/>
<path d="M15.711 9.10938H8.28948C7.88427 9.10938 7.55579 9.43786 7.55579 9.84307V10.1531C7.55579 10.5583 7.88427 10.8868 8.28948 10.8868H15.711C16.1162 10.8868 16.4447 10.5583 16.4447 10.1531V9.84307C16.4447 9.43786 16.1162 9.10938 15.711 9.10938Z" fill="black"/>
<path d="M13.622 14.1547H15.7102C15.784 14.1547 15.8439 14.2145 15.8439 14.2884V16.3758C15.8439 16.4496 15.784 16.5095 15.7102 16.5095H13.622C13.5482 16.5095 13.4883 16.4496 13.4883 16.3758V14.2884C13.4883 14.2145 13.5482 14.1547 13.622 14.1547Z" stroke="black" stroke-width="1.2"/>
</svg>
