<svg width="24" height="24" viewBox="0 0 24 24" fill="none" xmlns="http://www.w3.org/2000/svg">
<path d="M13 3.25C8.16751 3.25 4.25001 7.1675 4.25001 12C4.25001 13.594 4.67551 15.0865 5.41901 16.3725C5.50401 16.519 5.52551 16.6935 5.47901 16.8565L4.42101 20.5775L8.14101 19.5195C8.22159 19.4965 8.30595 19.49 8.3891 19.5003C8.47225 19.5106 8.55247 19.5376 8.62501 19.5795C9.95456 20.3487 11.464 20.7526 13 20.75C17.8325 20.75 21.75 16.8325 21.75 12C21.75 7.1675 17.8325 3.25 13 3.25ZM3.00001 12C3.00001 6.477 7.47701 2 13 2C18.523 2 23 6.477 23 12C23 17.523 18.523 22 13 22C11.3351 22.0024 9.69615 21.5874 8.23301 20.793L4.11551 21.964C3.45601 22.1515 2.84701 21.542 3.03451 20.883L4.20551 16.764C3.41202 15.3016 2.99757 13.6638 3.00001 12ZM9.00001 10.125C9.00001 9.78 9.28001 9.5 9.62501 9.5H16.375C16.4571 9.5 16.5384 9.51616 16.6142 9.54757C16.69 9.57898 16.7589 9.62502 16.8169 9.68305C16.875 9.74109 16.921 9.80999 16.9524 9.88582C16.9838 9.96165 17 10.0429 17 10.125C17 10.2071 16.9838 10.2883 16.9524 10.3642C16.921 10.44 16.875 10.5089 16.8169 10.5669C16.7589 10.625 16.69 10.671 16.6142 10.7024C16.5384 10.7338 16.4571 10.75 16.375 10.75H9.62501C9.28001 10.75 9.00001 10.47 9.00001 10.125ZM9.62501 13.25C9.45925 13.25 9.30027 13.3158 9.18306 13.4331C9.06585 13.5503 9.00001 13.7092 9.00001 13.875C9.00001 14.0408 9.06585 14.1997 9.18306 14.3169C9.30027 14.4341 9.45925 14.5 9.62501 14.5H14.375C14.5408 14.5 14.6997 14.4341 14.8169 14.3169C14.9342 14.1997 15 14.0408 15 13.875C15 13.7092 14.9342 13.5503 14.8169 13.4331C14.6997 13.3158 14.5408 13.25 14.375 13.25H9.62501Z" fill="black"/>
</svg>
