<svg width="20" height="22" viewBox="0 0 20 22" fill="none" xmlns="http://www.w3.org/2000/svg">
<path d="M19.675 13.6645L18.1398 12.352C18.2125 11.9066 18.25 11.452 18.25 10.9973C18.25 10.5426 18.2125 10.0879 18.1398 9.64258L19.675 8.33008C19.7908 8.23095 19.8737 8.09893 19.9126 7.95156C19.9515 7.80419 19.9447 7.64846 19.893 7.50508L19.8719 7.44414C19.4492 6.26295 18.8164 5.16797 18.0039 4.21211L17.9617 4.16289C17.8631 4.047 17.7318 3.96369 17.5849 3.92394C17.4381 3.88419 17.2826 3.88987 17.1391 3.94023L15.2336 4.61758C14.5305 4.04102 13.7453 3.58633 12.8969 3.26758L12.5289 1.27539C12.5011 1.12549 12.4284 0.987584 12.3204 0.879995C12.2124 0.772406 12.0742 0.700227 11.9242 0.673047L11.8609 0.661328C10.6398 0.441016 9.35546 0.441016 8.13437 0.661328L8.07109 0.673047C7.92108 0.700227 7.78289 0.772406 7.67488 0.879995C7.56688 0.987584 7.49416 1.12549 7.4664 1.27539L7.09609 3.27695C6.25442 3.59577 5.47062 4.05022 4.77577 4.62227L2.85624 3.94023C2.71272 3.88947 2.55716 3.88359 2.41022 3.92336C2.26327 3.96313 2.13191 4.04667 2.03359 4.16289L1.9914 4.21211C1.17987 5.16865 0.547124 6.26345 0.12343 7.44414L0.102336 7.50508C-0.00313249 7.79805 0.0835863 8.12617 0.320305 8.33008L1.87421 9.65664C1.80156 10.0973 1.7664 10.5473 1.7664 10.9949C1.7664 11.4449 1.80156 11.8949 1.87421 12.3332L0.320305 13.6598C0.204514 13.7589 0.12164 13.8909 0.082705 14.0383C0.0437695 14.1857 0.0506167 14.3414 0.102336 14.4848L0.12343 14.5457C0.547649 15.727 1.17577 16.8168 1.9914 17.7777L2.03359 17.827C2.13215 17.9428 2.26352 18.0262 2.41037 18.0659C2.55723 18.1057 2.71268 18.1 2.85624 18.0496L4.77577 17.3676C5.47421 17.9418 6.25468 18.3965 7.09609 18.7129L7.4664 20.7145C7.49416 20.8644 7.56688 21.0023 7.67488 21.1098C7.78289 21.2174 7.92108 21.2896 8.07109 21.3168L8.13437 21.3285C9.36668 21.55 10.6286 21.55 11.8609 21.3285L11.9242 21.3168C12.0742 21.2896 12.2124 21.2174 12.3204 21.1098C12.4284 21.0023 12.5011 20.8644 12.5289 20.7145L12.8969 18.7223C13.745 18.4044 14.5345 17.9482 15.2336 17.3723L17.1391 18.0496C17.2826 18.1004 17.4381 18.1063 17.5851 18.0665C17.732 18.0267 17.8634 17.9432 17.9617 17.827L18.0039 17.7777C18.8195 16.8145 19.4476 15.727 19.8719 14.5457L19.893 14.4848C19.9984 14.1965 19.9117 13.8684 19.675 13.6645ZM16.4758 9.91914C16.5344 10.273 16.5648 10.6363 16.5648 10.9996C16.5648 11.3629 16.5344 11.7262 16.4758 12.0801L16.3211 13.0199L18.0719 14.5176C17.8065 15.129 17.4714 15.7079 17.0734 16.2426L14.8984 15.4715L14.1625 16.0762C13.6023 16.5355 12.9789 16.8965 12.3039 17.1496L11.4109 17.4848L10.9914 19.7582C10.3295 19.8332 9.66116 19.8332 8.99921 19.7582L8.57968 17.4801L7.69374 17.1402C7.02577 16.8871 6.40468 16.5262 5.84921 16.0691L5.11327 15.4621L2.92421 16.2402C2.52577 15.7035 2.19296 15.1246 1.92577 14.5152L3.69531 13.0035L3.54296 12.066C3.48671 11.7168 3.45624 11.3559 3.45624 10.9996C3.45624 10.641 3.48437 10.2824 3.54296 9.9332L3.69531 8.9957L1.92577 7.48398C2.19062 6.87227 2.52577 6.2957 2.92421 5.75898L5.11327 6.53711L5.84921 5.93008C6.40468 5.47305 7.02577 5.11211 7.69374 4.85898L8.58202 4.52383L9.00155 2.2457C9.66015 2.1707 10.3328 2.1707 10.9937 2.2457L11.4133 4.51914L12.3062 4.8543C12.9789 5.10742 13.6047 5.46836 14.1648 5.92773L14.9008 6.53242L17.0758 5.76133C17.4742 6.29805 17.807 6.87695 18.0742 7.48633L16.3234 8.98398L16.4758 9.91914ZM9.99999 6.64023C7.72187 6.64023 5.87499 8.48711 5.87499 10.7652C5.87499 13.0434 7.72187 14.8902 9.99999 14.8902C12.2781 14.8902 14.125 13.0434 14.125 10.7652C14.125 8.48711 12.2781 6.64023 9.99999 6.64023ZM11.8562 12.6215C11.6128 12.8656 11.3234 13.0593 11.0049 13.1912C10.6863 13.3231 10.3448 13.3908 9.99999 13.3902C9.29921 13.3902 8.64062 13.116 8.14374 12.6215C7.89958 12.378 7.70596 12.0887 7.57403 11.7701C7.4421 11.4515 7.37446 11.11 7.37499 10.7652C7.37499 10.0645 7.64921 9.40586 8.14374 8.90898C8.64062 8.41211 9.29921 8.14023 9.99999 8.14023C10.7008 8.14023 11.3594 8.41211 11.8562 8.90898C12.1004 9.15245 12.294 9.44179 12.426 9.76035C12.5579 10.0789 12.6255 10.4204 12.625 10.7652C12.625 11.466 12.3508 12.1246 11.8562 12.6215Z" fill="black"/>
</svg>
