<svg width="18" height="18" viewBox="0 0 18 18" fill="none" xmlns="http://www.w3.org/2000/svg">
<path d="M16.0709 12.9481V5.05187C16.5096 4.93946 16.9106 4.71298 17.2335 4.39543C17.5563 4.07787 17.7893 3.68055 17.9089 3.2438C18.0285 2.80705 18.0304 2.34644 17.9144 1.90872C17.7984 1.47101 17.5686 1.07179 17.2484 0.751591C16.9282 0.431396 16.529 0.201632 16.0913 0.0856298C15.6536 -0.0303727 15.1929 -0.0284825 14.7562 0.0911085C14.3195 0.210699 13.9221 0.443732 13.6046 0.766544C13.287 1.08936 13.0605 1.49045 12.9481 1.9291H5.05187C4.93946 1.49045 4.71298 1.08936 4.39543 0.766544C4.07787 0.443732 3.68055 0.210699 3.2438 0.0911085C2.80705 -0.0284825 2.34644 -0.0303727 1.90872 0.0856298C1.47101 0.201632 1.07179 0.431396 0.751591 0.751591C0.431396 1.07179 0.201632 1.47101 0.0856298 1.90872C-0.0303727 2.34644 -0.0284825 2.80705 0.0911085 3.2438C0.210699 3.68055 0.443732 4.07787 0.766544 4.39543C1.08936 4.71298 1.49045 4.93946 1.9291 5.05187V12.9481C1.49045 13.0605 1.08936 13.287 0.766544 13.6046C0.443732 13.9221 0.210699 14.3195 0.0911085 14.7562C-0.0284825 15.1929 -0.0303727 15.6536 0.0856298 16.0913C0.201632 16.529 0.431396 16.9282 0.751591 17.2484C1.07179 17.5686 1.47101 17.7984 1.90872 17.9144C2.34644 18.0304 2.80705 18.0285 3.2438 17.9089C3.68055 17.7893 4.07787 17.5563 4.39543 17.2335C4.71298 16.9106 4.93946 16.5096 5.05187 16.0709H12.9481C13.0605 16.5096 13.287 16.9106 13.6046 17.2335C13.9221 17.5563 14.3195 17.7893 14.7562 17.9089C15.1929 18.0285 15.6536 18.0304 16.0913 17.9144C16.529 17.7984 16.9282 17.5686 17.2484 17.2484C17.5686 16.9282 17.7984 16.529 17.9144 16.0913C18.0304 15.6536 18.0285 15.1929 17.9089 14.7562C17.7893 14.3195 17.5563 13.9221 17.2335 13.6046C16.9106 13.287 16.5096 13.0605 16.0709 12.9481ZM15.4281 1.28629C15.6824 1.28629 15.9309 1.36169 16.1423 1.50296C16.3538 1.64422 16.5185 1.84501 16.6158 2.07993C16.7132 2.31484 16.7386 2.57334 16.689 2.82272C16.6394 3.07211 16.517 3.30118 16.3372 3.48098C16.1574 3.66078 15.9283 3.78322 15.6789 3.83283C15.4295 3.88243 15.171 3.85697 14.9361 3.75967C14.7012 3.66236 14.5004 3.49758 14.3591 3.28616C14.2179 3.07474 14.1425 2.82618 14.1425 2.57191C14.1428 2.23105 14.2784 1.90424 14.5194 1.66322C14.7604 1.42219 15.0872 1.28663 15.4281 1.28629ZM1.28629 2.57191C1.28629 2.31764 1.36169 2.06908 1.50296 1.85766C1.64422 1.64624 1.84501 1.48146 2.07993 1.38416C2.31484 1.28685 2.57334 1.26139 2.82272 1.311C3.07211 1.3606 3.30118 1.48305 3.48098 1.66284C3.66078 1.84264 3.78322 2.07171 3.83283 2.3211C3.88243 2.57049 3.85697 2.82898 3.75967 3.0639C3.66236 3.29881 3.49758 3.4996 3.28616 3.64086C3.07474 3.78213 2.82618 3.85753 2.57191 3.85753C2.23105 3.85719 1.90424 3.72163 1.66322 3.4806C1.42219 3.23958 1.28663 2.91277 1.28629 2.57191ZM2.57191 16.7137C2.31764 16.7137 2.06908 16.6383 1.85766 16.497C1.64624 16.3558 1.48146 16.155 1.38416 15.9201C1.28685 15.6852 1.26139 15.4267 1.311 15.1773C1.3606 14.9279 1.48305 14.6988 1.66284 14.519C1.84264 14.3392 2.07171 14.2168 2.3211 14.1672C2.57049 14.1176 2.82898 14.143 3.0639 14.2403C3.29881 14.3376 3.4996 14.5024 3.64086 14.7138C3.78213 14.9253 3.85753 15.1738 3.85753 15.4281C3.85719 15.769 3.72163 16.0958 3.4806 16.3368C3.23958 16.5778 2.91277 16.7134 2.57191 16.7137ZM12.9481 14.7853H5.05187C4.93672 14.3433 4.70577 13.9401 4.38284 13.6172C4.0599 13.2942 3.65667 13.0633 3.21472 12.9481V5.05187C3.65664 4.93666 4.05984 4.70569 4.38277 4.38277C4.70569 4.05984 4.93666 3.65664 5.05187 3.21472H12.9481C13.0633 3.65667 13.2942 4.0599 13.6172 4.38284C13.9401 4.70577 14.3433 4.93672 14.7853 5.05187V12.9481C14.3433 13.0632 13.94 13.2941 13.6171 13.6171C13.2941 13.94 13.0632 14.3433 12.9481 14.7853ZM15.4281 16.7137C15.1738 16.7137 14.9253 16.6383 14.7138 16.497C14.5024 16.3558 14.3376 16.155 14.2403 15.9201C14.143 15.6852 14.1176 15.4267 14.1672 15.1773C14.2168 14.9279 14.3392 14.6988 14.519 14.519C14.6988 14.3392 14.9279 14.2168 15.1773 14.1672C15.4267 14.1176 15.6852 14.143 15.9201 14.2403C16.155 14.3376 16.3558 14.5024 16.497 14.7138C16.6383 14.9253 16.7137 15.1738 16.7137 15.4281C16.7132 15.7689 16.5776 16.0956 16.3366 16.3366C16.0956 16.5776 15.7689 16.7132 15.4281 16.7137Z" fill="black"/>
</svg>
